<svg xmlns="http://www.w3.org/2000/svg" xmlns:xlink="http://www.w3.org/1999/xlink" width="2000" zoomAndPan="magnify" viewBox="0 0 1500 1499.999933" height="2000" preserveAspectRatio="xMidYMid meet" version="1.0"><defs><clipPath id="29cac505a4"><path d="M 750 0 C 335.785156 0 0 335.785156 0 750 C 0 1164.214844 335.785156 1500 750 1500 C 1164.214844 1500 1500 1164.214844 1500 750 C 1500 335.785156 1164.214844 0 750 0 Z M 750 0 " clip-rule="nonzero"/></clipPath></defs><g clip-path="url(#29cac505a4)"><rect x="-150" width="1800" fill="#eeeeee" y="-149.999993" height="1799.99992" fill-opacity="1"/></g><path fill="#5271ff" d="M 169.871094 590.34375 L 581.945312 220.375 C 617.425781 188.523438 673.078125 196.515625 698.15625 237.070312 L 980.601562 693.710938 C 1027.375 769.351562 929.222656 850.492188 863.726562 790.316406 L 644.292969 588.667969 C 621.589844 567.808594 588.582031 562.609375 560.566406 575.480469 L 252.949219 716.824219 C 173.230469 753.453125 104.589844 648.960938 169.871094 590.34375 " fill-opacity="1" fill-rule="nonzero"/><path fill="#333333" d="M 1334.566406 884.816406 L 892.476562 1281.707031 C 859.394531 1311.40625 807.507812 1303.957031 784.125 1266.152344 L 507.84375 819.425781 C 465.195312 750.46875 552.3125 675.125 614.40625 727.253906 L 837.617188 914.667969 C 858.742188 932.410156 888.207031 936.375 913.28125 924.851562 L 1257.109375 766.878906 C 1331.445312 732.738281 1395.4375 830.160156 1334.566406 884.816406 " fill-opacity="1" fill-rule="nonzero"/></svg>